<svg width="24" height="43" viewBox="0 0 24 43" fill="none" xmlns="http://www.w3.org/2000/svg">
<path d="M11.6204 38.0797C9.12145 38.0797 6.94246 37.6531 5.08345 36.7998C3.22444 35.916 1.53305 34.5903 0.00927734 32.8227L4.53489 28.2057C5.54058 29.4247 6.65294 30.3847 7.87196 31.0856C9.09098 31.7561 10.4929 32.0913 12.0776 32.0913C13.5709 32.0913 14.7289 31.817 15.5518 31.2685C16.3746 30.6894 16.786 29.8818 16.786 28.8456C16.786 27.9619 16.5118 27.2457 15.9632 26.6971C15.4451 26.1486 14.7442 25.6762 13.8604 25.28C12.9766 24.8838 12.0014 24.5029 10.9347 24.1372C9.8681 23.7715 8.80146 23.3601 7.73482 22.9029C6.69865 22.4153 5.73867 21.821 4.85488 21.1201C3.97109 20.3887 3.25492 19.4897 2.70636 18.423C2.1578 17.3259 1.88352 15.9545 1.88352 14.3088C1.88352 12.3279 2.35589 10.6213 3.30063 9.18895C4.27585 7.7566 5.60153 6.67472 7.27769 5.94331C8.95384 5.18142 10.8738 4.80047 13.0376 4.80047C15.1404 4.80047 17.106 5.19666 18.9346 5.98902C20.7631 6.78138 22.2564 7.86326 23.4145 9.23466L18.8889 13.8517C17.9441 12.846 16.9841 12.0841 16.0089 11.566C15.0642 11.0175 14.028 10.7432 12.9004 10.7432C11.59 10.7432 10.569 10.987 9.83763 11.4746C9.10622 11.9622 8.74051 12.6784 8.74051 13.6231C8.74051 14.446 9.01479 15.1164 9.56335 15.6345C10.1119 16.1221 10.8281 16.5488 11.7119 16.9145C12.6261 17.2802 13.6014 17.6459 14.6375 18.0116C15.7042 18.3773 16.7708 18.804 17.8375 19.2916C18.9041 19.7792 19.8793 20.4039 20.7631 21.1658C21.6774 21.8972 22.4088 22.842 22.9573 24C23.5059 25.1276 23.7802 26.5295 23.7802 28.2057C23.7802 31.2837 22.6983 33.7065 20.5345 35.4741C18.4012 37.2112 15.4299 38.0797 11.6204 38.0797ZM10.1119 34.5141H15.1404V42.1939H10.1119V34.5141ZM15.1404 8.09183H10.1119V0.686279H15.1404V8.09183Z" fill="black"/>
</svg>
