<svg width="44" height="34" viewBox="0 0 44 34" fill="none" xmlns="http://www.w3.org/2000/svg">
<path fillRule="evenodd" clipRule="evenodd" d="M0.566895 3.36921C0.566895 1.8636 1.76639 0.643066 3.24603 0.643066H40.754C42.2336 0.643066 43.4331 1.8636 43.4331 3.36921C43.4331 4.87481 42.2336 6.09535 40.754 6.09535H3.24603C1.76639 6.09535 0.566895 4.87481 0.566895 3.36921Z" fill="#33363F"/>
<path fillRule="evenodd" clipRule="evenodd" d="M0.566895 16.9999C0.566895 15.4943 1.76639 14.2738 3.24603 14.2738H30.0374C31.5171 14.2738 32.7166 15.4943 32.7166 16.9999C32.7166 18.5055 31.5171 19.726 30.0374 19.726H3.24603C1.76639 19.726 0.566895 18.5055 0.566895 16.9999Z" fill="#33363F"/>
<path fillRule="evenodd" clipRule="evenodd" d="M0.566895 30.6306C0.566895 29.125 1.76639 27.9045 3.24603 27.9045H19.3209C20.8005 27.9045 22 29.125 22 30.6306C22 32.1362 20.8005 33.3568 19.3209 33.3568H3.24603C1.76639 33.3568 0.566895 32.1362 0.566895 30.6306Z" fill="#33363F"/>
</svg>
