<svg width="224" height="64" viewBox="0 0 224 64" fill="none" xmlns="http://www.w3.org/2000/svg">
<path d="M70.3737 21.2453C69.2791 19.7079 67.8311 18.4562 66.1516 17.5955C63.8193 16.5008 61.2562 15.9884 58.6823 16.1024C56.1084 16.2163 53.6005 16.9531 51.3741 18.2496C49.0163 19.6559 47.0784 21.6683 45.7619 24.0774C44.3839 26.6354 43.6876 29.505 43.7401 32.4101C43.704 35.3387 44.418 38.2277 45.814 40.8024C47.1216 43.2563 49.0819 45.3011 51.4784 46.7112C53.875 48.1213 56.6145 48.8418 59.3947 48.7932C61.7113 48.8384 64.0052 48.3286 66.0847 47.3065C67.7798 46.427 69.2382 45.1522 70.3365 43.5899V48.0499C70.3918 49.3788 70.1541 50.7036 69.6403 51.9304C69.1264 53.1571 68.3491 54.2559 67.3632 55.1487C65.381 56.903 62.7521 57.7826 59.4764 57.7875C57.2298 57.8451 54.9998 57.3874 52.9574 56.4495C51.1058 55.5377 49.4883 54.2127 48.2298 52.5768L44.2753 56.6205C45.8778 58.8599 48.0275 60.6514 50.5193 61.8238C53.3139 63.1089 56.3641 63.7418 59.4393 63.6747C62.5242 63.7345 65.5799 63.0673 68.3593 61.7272C70.8489 60.5046 72.9396 58.5995 74.3877 56.234C75.8602 53.7648 76.6097 50.9317 76.5508 48.0573V16.7704H70.3811L70.3737 21.2453ZM65.9137 41.6721C64.2766 42.5727 62.4295 43.0217 60.5617 42.9729C58.6815 43.0064 56.8256 42.5449 55.18 41.6349C53.6154 40.7712 52.327 39.4828 51.4633 37.9182C50.5502 36.2362 50.0892 34.346 50.1253 32.4324C50.0864 30.5304 50.5478 28.6515 51.4633 26.9838C52.3183 25.4304 53.5867 24.144 55.1279 23.2671C56.7848 22.3523 58.6547 21.8932 60.5468 21.9366C62.4058 21.8948 64.2417 22.3545 65.8617 23.2671C67.3786 24.1436 68.6158 25.4324 69.4297 26.9838C70.3069 28.6875 70.7438 30.5836 70.7008 32.4993C70.7445 34.4175 70.3075 36.3162 69.4297 38.0223C68.6253 39.5461 67.4064 40.8114 65.9137 41.6721Z" fill="black"/>
<path d="M108.202 18.1456C105.784 16.7494 103.032 16.0376 100.241 16.0865C97.2929 16.0432 94.3872 16.7896 91.8252 18.2484C89.2633 19.7071 87.1385 21.825 85.6714 24.3821C84.1677 27.0123 83.3976 29.9978 83.4414 33.0271C83.3803 36.0796 84.1512 39.0912 85.6714 41.739C87.1463 44.2696 89.2646 46.3649 91.8113 47.812C94.4993 49.3263 97.5425 50.0961 100.627 50.042C103.099 50.0607 105.547 49.5724 107.823 48.6074C110.038 47.6672 112.01 46.2363 113.591 44.4224L109.607 40.3787C108.54 41.6362 107.19 42.6221 105.667 43.2554C104.068 43.9077 102.354 44.2337 100.627 44.2143C98.6032 44.2471 96.6045 43.7609 94.8218 42.8019C93.156 41.8894 91.796 40.5062 90.9119 38.8251C90.3687 37.7341 89.9976 36.5656 89.8117 35.3612H115.263C115.393 34.7855 115.485 34.202 115.538 33.6143C115.583 33.0866 115.605 32.596 115.605 32.1277C115.661 29.2421 114.989 26.3891 113.65 23.8321C112.4 21.4656 110.513 19.496 108.202 18.1456ZM94.5468 23.1556C96.2454 22.2124 98.1644 21.7377 100.107 21.7805C101.898 21.7316 103.668 22.171 105.228 23.0516C106.646 23.897 107.789 25.1332 108.521 26.6121C109.044 27.7513 109.373 28.9698 109.495 30.2173H89.7746C89.9563 29.0965 90.3046 28.0091 90.8078 26.9912C91.6452 25.3819 92.931 24.0496 94.5096 23.1556H94.5468Z" fill="black"/>
<path d="M145.369 17.9375C143.416 16.6873 141.138 16.0433 138.82 16.0866C136.493 16.0456 134.198 16.6228 132.167 17.7591C130.702 18.6165 129.436 19.7742 128.45 21.1561V16.7704H122.325V49.3507H128.502V30.3511C128.474 28.8185 128.851 27.3057 129.595 25.9655C130.299 24.7137 131.329 23.6759 132.576 22.9624C133.914 22.2128 135.428 21.8331 136.961 21.8623C138.075 21.8185 139.185 22.0097 140.22 22.4233C141.255 22.837 142.191 23.4639 142.968 24.2632C143.734 25.0786 144.332 26.0377 144.726 27.0851C145.12 28.1325 145.303 29.2475 145.264 30.366V49.3507H151.501V29.1172C151.499 26.8949 150.923 24.7109 149.829 22.7766C148.764 20.82 147.232 19.1574 145.369 17.9375Z" fill="black"/>
<path d="M169.274 23.4604C170.943 22.5054 172.838 22.0199 174.76 22.0555C176.381 22.0324 177.99 22.341 179.488 22.9624C180.924 23.5557 182.199 24.4833 183.205 25.6681L187.315 21.55C185.8 19.8018 183.913 18.415 181.792 17.4914C179.583 16.5434 177.201 16.065 174.797 16.0865C171.757 16.0444 168.759 16.8142 166.115 18.3165C163.578 19.76 161.471 21.8538 160.013 24.3821C158.509 27.0123 157.739 29.9978 157.783 33.0271C157.747 36.0437 158.516 39.0153 160.013 41.6349C161.466 44.1864 163.573 46.3055 166.115 47.7748C168.756 49.286 171.755 50.0564 174.797 50.0048C177.202 50.031 179.585 49.5524 181.792 48.5999C183.912 47.6683 185.797 46.2739 187.308 44.519L183.279 40.4381C182.257 41.6058 180.987 42.5303 179.562 43.1439C178.054 43.775 176.432 44.0912 174.797 44.073C172.871 44.1069 170.972 43.6078 169.312 42.631C167.724 41.6909 166.42 40.3402 165.536 38.721C164.597 36.9725 164.126 35.0112 164.168 33.0271C164.127 31.0431 164.598 29.082 165.536 27.3332C166.407 25.7265 167.699 24.3876 169.274 23.4604Z" fill="black"/>
<path d="M216.178 16.7704L206.262 39.8732L196.844 16.7704H189.983L202.769 46.5112L194.785 62.9983H201.639L207.816 49.6258L223.039 16.7704H216.178Z" fill="black"/>
<path d="M30.7838 1.09352H37.7266V49.6406H31.713C22.1612 49.6406 18.6898 43.1662 17.2254 34.38L14.8393 19.7437C13.6797 12.8084 12.5201 7.56052 6.97485 7.25575V48.8824H0.0395508V0.32045H6.20178C17.2998 0.32045 20.0724 8.02881 21.8118 19.2011L23.9675 32.9974C24.8149 38.3122 26.5171 42.3188 30.7466 42.7053L30.7838 1.09352Z" fill="black"/>
</svg>
