<svg width="32" height="54" viewBox="0 0 32 54" fill="none" xmlns="http://www.w3.org/2000/svg">
<path fillRule="evenodd" clipRule="evenodd" d="M23.6251 0V2.66667C23.6251 2.70119 23.6251 2.73621 23.6251 2.77169C23.6255 3.30469 23.6259 3.93927 23.5536 4.48502C23.4664 5.14381 23.2331 6.05511 22.4718 6.82843C21.7106 7.60174 20.8135 7.83883 20.165 7.9274C19.6278 8.00078 19.0031 8.00038 18.4785 8.00004C18.4436 8.00002 18.4091 8 18.3751 8H13.1251C13.0911 8 13.0566 8.00002 13.0217 8.00004C12.497 8.00038 11.8724 8.00078 11.3351 7.9274C10.6867 7.83883 9.78959 7.60174 9.02836 6.82843C8.26713 6.05511 8.03374 5.14381 7.94655 4.48502C7.87432 3.93927 7.87471 3.30469 7.87505 2.77169C7.87507 2.73621 7.87509 2.70119 7.87509 2.66667V0H23.6251ZM18.3751 5.33333C19.6125 5.33333 20.2312 5.33333 20.6157 4.94281C21.0001 4.55228 21.0001 3.92375 21.0001 2.66667H10.5001C10.5001 3.92375 10.5001 4.55228 10.8845 4.94281C11.2689 5.33333 11.8877 5.33333 13.1251 5.33333H18.3751ZM12.0247 2.64009C12.0247 2.64007 12.0262 2.64029 12.0289 2.6408L12.0247 2.64009ZM19.4755 2.64009C19.4755 2.64011 19.4741 2.64036 19.4713 2.6408L19.4755 2.64009Z" fill="white"/>
<path fillRule="evenodd" clipRule="evenodd" d="M21 2.66667H10.5C7.95092 2.66667 6.30318 2.67233 5.0891 2.83815C3.95053 2.99366 3.59367 3.24472 3.39384 3.44771C3.19402 3.65071 2.94688 4.01324 2.7938 5.16988C2.63057 6.40323 2.625 8.07712 2.625 10.6667V42.6667C2.625 45.2562 2.63057 46.9301 2.7938 48.1635C2.94688 49.3201 3.19402 49.6826 3.39384 49.8856C3.59367 50.0886 3.95053 50.3397 5.0891 50.4952C6.30318 50.661 7.95092 50.6667 10.5 50.6667H21C23.5491 50.6667 25.1968 50.661 26.4109 50.4952C27.5495 50.3397 27.9063 50.0886 28.1062 49.8856C28.306 49.6826 28.5531 49.3201 28.7062 48.1635C28.8694 46.9301 28.875 45.2562 28.875 42.6667V10.6667C28.875 8.07712 28.8694 6.40323 28.7062 5.16988C28.5531 4.01324 28.306 3.65071 28.1062 3.44771C27.9063 3.24472 27.5495 2.99366 26.4109 2.83815C25.1968 2.67233 23.5491 2.66667 21 2.66667ZM1.53769 1.5621C0 3.12419 0 5.63835 0 10.6667V42.6667C0 47.695 0 50.2091 1.53769 51.7712C3.07538 53.3333 5.55025 53.3333 10.5 53.3333H21C25.9497 53.3333 28.4246 53.3333 29.9623 51.7712C31.5 50.2091 31.5 47.695 31.5 42.6667V10.6667C31.5 5.63835 31.5 3.12419 29.9623 1.5621C28.4246 0 25.9497 0 21 0H10.5C5.55025 0 3.07538 0 1.53769 1.5621Z" fill="white"/>
<path d="M18.375 42.6667C18.375 44.1394 17.1997 45.3333 15.75 45.3333C14.3003 45.3333 13.125 44.1394 13.125 42.6667C13.125 41.1939 14.3003 40 15.75 40C17.1997 40 18.375 41.1939 18.375 42.6667Z" fill="white"/>
</svg>
