<svg width="46" height="46" viewBox="0 0 46 46" fill="none" xmlns="http://www.w3.org/2000/svg">
<path fill-rule="evenodd" clip-rule="evenodd" d="M27.1587 3.17156C27.3418 3.52651 27.3873 3.98109 27.4782 4.89024C27.6503 6.61109 27.7363 7.47151 28.0964 7.94359C28.5533 8.54244 29.2962 8.85019 30.0427 8.74977C30.6312 8.6706 31.3004 8.12304 32.6389 7.0279C33.3461 6.44934 33.6996 6.16006 34.0801 6.03852C34.5633 5.88415 35.0861 5.91022 35.5515 6.11191C35.918 6.2707 36.241 6.59373 36.8871 7.23978L38.7601 9.11284C39.4062 9.75891 39.7292 10.0819 39.888 10.4484C40.0897 10.9139 40.1158 11.4366 39.9614 11.9198C39.8399 12.3003 39.5506 12.6539 38.972 13.361C37.8768 14.6996 37.3293 15.3688 37.2501 15.9573C37.1497 16.7038 37.4574 17.4467 38.0563 17.9035C38.5283 18.2637 39.3888 18.3497 41.1097 18.5218C42.0189 18.6127 42.4735 18.6582 42.8285 18.8413C43.2793 19.0738 43.6305 19.4619 43.817 19.9336C43.9639 20.305 43.9639 20.7619 43.9639 21.6756V24.3247C43.9639 25.2381 43.9639 25.6949 43.8171 26.0662C43.6306 26.5381 43.2792 26.9263 42.8283 27.1588C42.4734 27.3418 42.0189 27.3873 41.1099 27.4782C39.3896 27.6502 38.5294 27.7362 38.0574 28.0961C37.4582 28.553 37.1504 29.2963 37.251 30.043C37.3302 30.6313 37.8776 31.3003 38.9723 32.6383C39.5507 33.3452 39.8399 33.6987 39.9614 34.0789C40.1159 34.5623 40.0898 35.0853 39.888 35.5509C39.7292 35.9172 39.4063 36.2401 38.7605 36.886L36.8872 38.7593C36.2411 39.4053 35.9181 39.7284 35.5516 39.8872C35.0862 40.0888 34.5634 40.1149 34.0802 39.9606C33.6997 39.839 33.3461 39.5497 32.639 38.9712C31.3005 37.876 30.6313 37.3285 30.0428 37.2493C29.2963 37.1489 28.5534 37.4566 28.0965 38.0555C27.7364 38.5276 27.6503 39.3881 27.4782 41.1093C27.3873 42.0188 27.3418 42.4736 27.1586 42.8287C26.9261 43.2793 26.5382 43.6304 26.0666 43.8169C25.6951 43.9639 25.2381 43.9639 24.3241 43.9639H21.6756C20.7619 43.9639 20.305 43.9639 19.9336 43.817C19.4619 43.6305 19.0738 43.2793 18.8413 42.8285C18.6582 42.4735 18.6127 42.0189 18.5218 41.1097C18.3497 39.3888 18.2637 38.5283 17.9035 38.0563C17.4467 37.4575 16.7038 37.1497 15.9573 37.2501C15.3688 37.3293 14.6996 37.8769 13.361 38.9721C12.6538 39.5507 12.3002 39.84 11.9197 39.9615C11.4365 40.1159 10.9138 40.0898 10.4483 39.8881C10.0819 39.7293 9.75881 39.4063 9.11271 38.7602L7.23972 36.8872C6.59363 36.2411 6.27059 35.9181 6.1118 35.5516C5.91013 35.0862 5.88405 34.5634 6.03841 34.0802C6.15995 33.6997 6.44925 33.3461 7.02785 32.639C8.12301 31.3004 8.67059 30.6312 8.74975 30.0427C8.85017 29.2962 8.54242 28.5533 7.94359 28.0964C7.4715 27.7363 6.61108 27.6503 4.89022 27.4782C3.98108 27.3873 3.52652 27.3418 3.17156 27.1587C2.72072 26.9262 2.36949 26.5381 2.18298 26.0664C2.03613 25.695 2.03613 25.2381 2.03613 24.3245V21.6758C2.03613 20.7619 2.03613 20.3049 2.18306 19.9334C2.36956 19.4619 2.72069 19.0739 3.17137 18.8414C3.52641 18.6582 3.9811 18.6127 4.89047 18.5218C6.61178 18.3497 7.47246 18.2636 7.94462 17.9033C8.54321 17.4465 8.85086 16.7038 8.75058 15.9575C8.67149 15.3689 8.12373 14.6994 7.02821 13.3604C6.44937 12.653 6.15995 12.2992 6.03842 11.9186C5.88419 11.4356 5.91025 10.913 6.11178 10.4477C6.27058 10.0811 6.59374 9.75794 7.24006 9.11162L9.11281 7.23888C9.7589 6.59278 10.082 6.26973 10.4484 6.11094C10.9139 5.90928 11.4366 5.8832 11.9198 6.03755C12.3003 6.15909 12.6539 6.44844 13.3612 7.02713C14.6996 8.12216 15.3688 8.66968 15.9571 8.7489C16.7037 8.84946 17.447 8.54161 17.9038 7.94253C18.2638 7.47052 18.3498 6.61033 18.5218 4.88996C18.6127 3.98107 18.6582 3.52663 18.8412 3.17175C19.0737 2.72076 19.4619 2.36942 19.9338 2.1829C20.3052 2.03613 20.7619 2.03613 21.6753 2.03613H24.3244C25.2381 2.03613 25.695 2.03613 26.0664 2.18298C26.5381 2.36949 26.9262 2.72072 27.1587 3.17156ZM23 31.3855C27.6312 31.3855 31.3855 27.6312 31.3855 23C31.3855 18.3688 27.6312 14.6145 23 14.6145C18.3688 14.6145 14.6145 18.3688 14.6145 23C14.6145 27.6312 18.3688 31.3855 23 31.3855Z" stroke="black" strokeWidth="3"/>
</svg>
