<svg width="43" height="23" viewBox="0 0 43 23" fill="none" xmlns="http://www.w3.org/2000/svg">
<path d="M9.65637 22.9869C7.80602 22.9869 6.16836 22.5935 4.74338 21.8065C3.33967 21.0196 2.23371 19.9349 1.42551 18.5525C0.638582 17.1488 0.245117 15.5536 0.245117 13.7671V0.112793H5.28572V14.0542C5.28572 14.9475 5.47714 15.7238 5.85997 16.3831C6.2428 17.0424 6.76387 17.5529 7.42319 17.9144C8.10378 18.2547 8.84817 18.4249 9.65637 18.4249C10.5071 18.4249 11.2515 18.2547 11.8896 17.9144C12.5276 17.5529 13.0274 17.0531 13.389 16.415C13.7718 15.7557 13.9632 14.9794 13.9632 14.0861V0.112793H19.0038V13.799C19.0038 15.5855 18.6104 17.17 17.8234 18.5525C17.0365 19.9349 15.9412 21.0196 14.5375 21.8065C13.1338 22.5935 11.5067 22.9869 9.65637 22.9869Z" fill="black"/>
<path d="M36.7279 22.636L30.4431 12.5867H29.837L21.1595 0.112793H27.1253L33.3144 9.55595H33.9205L42.598 22.636H36.7279ZM20.7448 22.636L29.0713 10.5768L32.9315 12.7462L26.4553 22.636H20.7448ZM34.1119 12.0124L30.2517 9.84307L36.5046 0.112793H42.2152L34.1119 12.0124Z" fill="black"/>
</svg>
